<svg width="17" height="15" viewBox="0 0 17 15" fill="none" xmlns="http://www.w3.org/2000/svg">
<path fill-rule="evenodd" clip-rule="evenodd" d="M4.79762 0.621855C4.61492 0.701362 4.50041 0.908653 4.50041 1.15989V1.34763L3.33557 1.36327C2.24994 1.37783 2.15238 1.38626 1.90059 1.48724C1.3473 1.70904 0.856891 2.19927 0.633007 2.75421L0.523489 3.0257L0.510452 7.89491C0.501933 11.0809 0.514123 12.8556 0.54575 13.0289C0.664163 13.6775 1.12793 14.2667 1.76537 14.5785L2.12367 14.7538H8.26554H14.4074L14.7657 14.5785C15.4031 14.2667 15.8669 13.6775 15.9853 13.0289C16.017 12.8556 16.0291 11.0809 16.0206 7.89491L16.0076 3.0257L15.8985 2.75534C15.6742 2.19955 15.1841 1.70909 14.6316 1.48767C14.3785 1.38616 14.2825 1.37787 13.1955 1.36327L12.0307 1.34763L12.0305 1.15047C12.0302 0.87248 11.8916 0.665659 11.6589 0.595856C11.2981 0.487665 10.9958 0.741727 10.9955 1.15344L10.9953 1.35362H8.26554H5.53582V1.16286C5.53582 0.918168 5.42974 0.714786 5.25499 0.624352C5.08688 0.537356 4.99289 0.536838 4.79762 0.621855ZM4.50041 2.6065C4.50041 2.7901 4.52484 2.84761 4.66043 2.98331C4.79159 3.11458 4.85607 3.14345 5.01811 3.14345C5.18016 3.14345 5.24463 3.11458 5.3758 2.98331C5.51139 2.84761 5.53582 2.7901 5.53582 2.6065V2.38984H8.26554H10.9953V2.6065C10.9953 2.7901 11.0197 2.84761 11.1553 2.98331C11.2864 3.11458 11.3509 3.14345 11.513 3.14345C11.675 3.14345 11.7395 3.11458 11.8707 2.98331C12.0062 2.84761 12.0307 2.7901 12.0307 2.6065V2.38984L13.0778 2.39087C14.2846 2.39205 14.372 2.41325 14.6979 2.78384C14.9492 3.06951 14.9957 3.2726 14.9957 4.08279V4.74489H8.26554H1.53537V4.08279C1.53537 3.2726 1.58191 3.06951 1.83319 2.78384C2.15911 2.41325 2.24651 2.39205 3.45323 2.39087L4.50041 2.38984V2.6065ZM14.9851 9.37256L14.9722 12.964L14.8417 13.1861C14.6826 13.4569 14.4606 13.6331 14.1667 13.7216C13.8364 13.8211 2.6947 13.8211 2.36436 13.7216C2.07049 13.6331 1.84844 13.4569 1.68936 13.1861L1.5589 12.964L1.546 9.37256L1.53311 5.78111H8.26554H14.998L14.9851 9.37256Z" fill="#A5A5A5"/>
</svg>
