<svg width="36" height="37" viewBox="0 0 36 37" fill="none" xmlns="http://www.w3.org/2000/svg">
<path fill-rule="evenodd" clip-rule="evenodd" d="M7.40131 0.994755C6.46505 1.16425 5.83426 1.37285 4.97177 1.79812C3.20016 2.6716 1.87678 3.99932 1.01335 5.76951C-0.25137 8.36247 -0.219064 11.1503 1.10557 13.7373C3.21581 17.8586 8.3202 19.6001 12.5054 17.6267C13.5275 17.1447 14.258 16.6333 15.0272 15.8614C18.4389 12.4373 18.4567 6.9319 15.0672 3.49593C14.3352 2.75388 13.6694 2.26328 12.7954 1.82215C11.1307 0.981723 9.15086 0.678055 7.40131 0.994755ZM10.5593 2.31761C11.9039 2.64836 13.0518 3.29385 14.0534 4.2825C14.8329 5.05188 15.0935 5.40092 15.5287 6.25815C16.6187 8.40549 16.6306 10.8533 15.5614 12.9921C15.1072 13.9009 14.8505 14.2498 14.0559 15.0381C13.0771 16.0092 12.045 16.5956 10.6476 16.9748C9.71782 17.227 8.02115 17.2279 7.06034 16.9766C5.64574 16.6066 4.6236 16.0155 3.56993 14.958C2.53206 13.9163 1.93857 12.8922 1.5613 11.4918C1.31185 10.5661 1.31122 8.77502 1.55989 7.8546C2.36966 4.85741 4.75157 2.67631 7.73087 2.20385C8.35478 2.10493 9.95648 2.16931 10.5593 2.31761ZM20.4434 4.0564C20.2662 4.13483 20.0998 4.55531 20.1518 4.79311C20.2218 5.11311 20.3234 5.17223 21.1753 5.38922C24.3791 6.20515 27.1822 8.51273 28.5942 11.4967C28.9226 12.1906 29.3092 13.2537 29.2533 13.3088C29.2381 13.3238 28.8948 13.1272 28.4904 12.872C28.0859 12.6168 27.6771 12.408 27.5818 12.408C27.4864 12.408 27.314 12.4827 27.1983 12.5739C27.0211 12.7139 26.9918 12.7907 27.0118 13.0646L27.0354 13.3894L28.2479 14.1993C28.9147 14.6447 29.6054 15.0823 29.7825 15.1717C30.2204 15.3924 30.5975 15.3206 30.8826 14.9621C31.3631 14.3576 32.6284 12.2981 32.6284 12.1203C32.6284 11.8385 32.2977 11.5445 31.9807 11.5445C31.6698 11.5445 31.563 11.6513 31.02 12.5052C30.8075 12.8392 30.6161 13.113 30.5946 13.1135C30.5731 13.114 30.4383 12.77 30.2951 12.3491C29.2211 9.19096 26.8803 6.5217 23.9065 5.06381C22.6757 4.4604 20.7779 3.90833 20.4434 4.0564ZM8.77022 4.75786C7.48704 5.03445 6.08708 6.07004 5.44314 7.21892L5.13283 7.77248L4.05374 7.77429C3.01344 7.77601 2.96768 7.783 2.78261 7.96883C2.52854 8.22374 2.52854 8.58456 2.78261 8.83948C2.96424 9.02185 3.02314 9.03222 3.87773 9.03222H4.78083V9.66028V10.2883H3.87773C3.02314 10.2883 2.96424 10.2987 2.78261 10.4811C2.52854 10.736 2.52854 11.0968 2.78261 11.3517C2.96784 11.5377 3.01235 11.5445 4.05374 11.5446L5.13283 11.5449L5.34818 11.9585C6.38057 13.9417 8.80347 15.0493 11.0595 14.5695C11.705 14.4322 12.5061 14.0817 12.6071 13.8924C12.8157 13.5011 12.5431 12.9576 12.1383 12.9576C12.0387 12.9576 11.7068 13.0483 11.4008 13.159C10.2898 13.5612 9.06591 13.4812 8.03516 12.9388C7.58592 12.7024 6.57997 11.7924 6.57997 11.6223C6.57997 11.5734 7.16375 11.5445 8.14795 11.5445C9.70851 11.5445 9.71696 11.5435 9.90798 11.3517C10.0291 11.2303 10.1 11.0693 10.1 10.9164C10.1 10.7635 10.0291 10.6025 9.90798 10.4811L9.71602 10.2883H7.87417H6.0324V9.66028V9.03222H7.87417H9.71602L9.90798 8.83948C10.0291 8.71803 10.1 8.55709 10.1 8.40415C10.1 8.25122 10.0291 8.09028 9.90798 7.96883C9.71688 7.77696 9.70875 7.77609 8.14357 7.77609H6.57113L6.7124 7.53201C6.91726 7.17833 7.50832 6.66772 8.04572 6.38023C9.05683 5.83939 10.3034 5.75711 11.4002 6.15891C12.1094 6.41869 12.3138 6.41822 12.5192 6.15609C12.7387 5.87621 12.7278 5.53501 12.4926 5.31629C12.2872 5.1252 11.5549 4.85097 10.898 4.719C10.3395 4.60689 9.3903 4.62417 8.77022 4.75786ZM24.9234 18.5805C23.9871 18.75 23.3563 18.9586 22.4938 19.3838C20.7222 20.2573 19.3988 21.585 18.5354 23.3552C17.2707 25.9482 17.303 28.736 18.6276 31.323C20.7379 35.4443 25.8423 37.1858 30.0275 35.2124C31.0495 34.7304 31.7801 34.2191 32.5492 33.4472C35.9609 30.0231 35.9788 24.5176 32.5893 21.0817C31.8573 20.3396 31.1914 19.849 30.3175 19.4079C28.6528 18.5674 26.6729 18.2638 24.9234 18.5805ZM28.0813 19.9033C29.426 20.2341 30.5738 20.8796 31.5755 21.8682C32.3549 22.6376 32.6156 22.9866 33.0507 23.8439C34.1408 25.9912 34.1526 28.439 33.0835 30.5779C32.6292 31.4866 32.3725 31.8355 31.578 32.6238C30.5991 33.5949 29.5671 34.1814 28.1696 34.5605C27.2399 34.8127 25.5432 34.8136 24.5824 34.5623C23.1678 34.1924 22.1457 33.6012 21.092 32.5437C20.0541 31.5021 19.4606 30.4779 19.0834 29.0775C18.8339 28.1518 18.8333 26.3607 19.082 25.4403C19.8917 22.4431 22.2736 20.262 25.2529 19.7896C25.8768 19.6907 27.4785 19.755 28.0813 19.9033ZM25.9368 21.6292C25.7758 21.7907 25.7447 21.8976 25.7447 22.2902C25.7447 22.7536 25.7421 22.7592 25.4936 22.8139C25.0005 22.9227 24.5587 23.1667 24.146 23.5585C23.1156 24.5365 23.0874 25.9341 24.0775 26.9458C24.5652 27.4441 25.13 27.6806 26.2719 27.8645C27.0603 27.9915 27.2819 28.0587 27.5718 28.2589C28.0288 28.5745 28.2327 29.054 28.0918 29.4822C27.9546 29.8995 27.5367 30.2805 27.0609 30.4223C26.1877 30.6826 25.5116 30.5182 24.8944 29.8956C24.5588 29.5569 24.4477 29.4913 24.2096 29.4913C23.8588 29.4913 23.6327 29.7378 23.6327 30.12C23.6327 30.604 24.4684 31.354 25.3048 31.6206L25.7425 31.7602L25.7436 32.2151C25.7446 32.5928 25.7774 32.703 25.9368 32.8628C26.0578 32.9844 26.2181 33.0556 26.3705 33.0556C26.5229 33.0556 26.6832 32.9844 26.8043 32.8628C26.9652 32.7013 26.9963 32.5944 26.9963 32.2018C26.9963 31.7367 26.9981 31.733 27.2505 31.6796C27.6887 31.5868 28.2727 31.2537 28.6542 30.8791C29.6277 29.9233 29.6218 28.451 28.6409 27.5302C28.0912 27.0141 27.5873 26.7894 26.6617 26.6476C25.6344 26.4903 25.2166 26.3406 24.9134 26.0212C24.5856 25.676 24.5213 25.3018 24.7144 24.8638C24.8873 24.4712 25.2124 24.2115 25.7237 24.057C26.5335 23.8125 27.2378 23.9864 27.8464 24.5814C28.1476 24.8758 28.3011 24.9693 28.4838 24.9693C28.8022 24.9693 29.1083 24.6633 29.1083 24.345C29.1083 23.8889 28.247 23.1298 27.4362 22.8714L26.9985 22.7318L26.9974 22.2769C26.9965 21.8992 26.9636 21.789 26.8043 21.6292C26.6832 21.5076 26.5229 21.4364 26.3705 21.4364C26.2181 21.4364 26.0578 21.5076 25.9368 21.6292ZM5.11257 21.6975C4.90841 21.8113 4.91036 21.8086 3.90198 23.3491C3.06804 24.6231 2.98114 24.8948 3.30936 25.2017C3.47614 25.3577 3.78817 25.4078 4.02487 25.3167C4.08933 25.2918 4.36053 24.939 4.62743 24.5329C4.89433 24.1266 5.13932 23.8107 5.17186 23.8308C5.20433 23.851 5.27074 24.0262 5.31939 24.22C5.43704 24.6891 6.02693 26.0643 6.37463 26.6803C7.19793 28.1387 8.47086 29.5808 9.86535 30.635C11.1664 31.6186 13.1168 32.5176 14.6303 32.8313C15.0722 32.9229 15.1206 32.9186 15.321 32.7689C15.4818 32.6489 15.5425 32.5292 15.5599 32.2978C15.5915 31.8772 15.4399 31.7572 14.5885 31.5285C11.2716 30.6375 8.62058 28.4762 7.17376 25.4836C6.81745 24.7465 6.39551 23.6365 6.45066 23.5813C6.46803 23.5638 6.81464 23.763 7.22093 24.0239C7.66148 24.3068 8.04564 24.4982 8.17291 24.4982C8.64671 24.4982 8.94357 23.8512 8.63333 23.4948C8.558 23.4084 7.88333 22.9452 7.13394 22.4655C5.72232 21.562 5.50431 21.4791 5.11257 21.6975Z" fill="#B68157"/>
</svg>
