<svg width="15" height="16" viewBox="0 0 15 16" fill="none" xmlns="http://www.w3.org/2000/svg">
<path fill-rule="evenodd" clip-rule="evenodd" d="M3.81224 0.958931C2.87621 1.08979 2.07095 1.57216 1.39847 2.40486C0.659541 3.31977 0.266086 4.4155 0.211937 5.70921C0.122628 7.84378 1.38823 10.2436 3.94379 12.7857C4.68051 13.5185 5.41994 14.1662 6.27987 14.832C6.93889 15.3423 7.2519 15.5554 7.34235 15.5554C7.46783 15.5554 8.53488 14.768 9.35338 14.0715C11.6157 12.1463 13.2424 10.1203 13.9694 8.32235C14.5973 6.76933 14.6352 5.26236 14.0833 3.78968C13.7198 2.81973 12.9493 1.86214 12.1769 1.42049C10.6001 0.518802 8.80147 0.888533 7.59932 2.36145L7.34107 2.6779L7.08234 2.36107C6.48545 1.6302 5.76652 1.17372 4.92755 0.992957C4.68737 0.941194 4.07305 0.922455 3.81224 0.958931Z" fill="#D3B47E"/>
</svg>
