<svg width="36" height="37" viewBox="0 0 36 37" fill="none" xmlns="http://www.w3.org/2000/svg">
<path fill-rule="evenodd" clip-rule="evenodd" d="M5.08712 0.951401C2.85985 1.41502 1.05981 3.00236 0.313567 5.16112L0.0488281 5.92675V18.4584V30.9901L0.310361 31.7464C0.966141 33.6422 2.43068 35.1082 4.32107 35.761L5.08712 36.0256H17.6256H30.1641L30.9301 35.761C32.8205 35.1082 34.2851 33.6422 34.9408 31.7464L35.2024 30.9901V18.4584V5.92675L34.9376 5.16112C34.2904 3.28881 32.9021 1.88984 30.9565 1.14928L30.2786 0.891203L17.9119 0.873693C11.1102 0.863966 5.33904 0.898986 5.08712 0.951401ZM30.4755 3.66087C31.2401 4.01736 31.9954 4.7561 32.3658 5.50983L32.6832 6.15564V18.4584V30.7612L32.3658 31.407C31.9954 32.1607 31.2401 32.8995 30.4755 33.256L29.9351 33.5078H17.6256H5.31613L4.66997 33.1906C3.91583 32.8204 3.17669 32.0655 2.82 31.3014L2.56797 30.7612V18.4584V6.15564L2.88539 5.50983C3.38544 4.49242 4.31832 3.74098 5.43064 3.45956C5.61958 3.41173 11.2104 3.38083 17.8546 3.39078L29.9351 3.40898L30.4755 3.66087ZM12.072 5.97368C11.9461 6.02747 11.74 6.18586 11.614 6.32582C11.3881 6.5768 11.385 6.74137 11.385 18.4678V30.3555L11.7025 30.6727C11.964 30.9341 12.12 30.9901 12.5873 30.9901C13.0546 30.9901 13.2106 30.9341 13.4721 30.6728L13.7896 30.3556L13.8219 25.6752L13.8542 20.9947L17.0854 20.955L20.3165 20.9154L21.3033 20.5641C23.6395 19.7324 25.241 18.1066 26.0721 15.7227C26.3369 14.9634 26.3754 14.6725 26.3767 13.4229C26.378 12.1173 26.3476 11.9061 26.0284 11.006C25.2056 8.68532 23.5849 7.07887 21.2314 6.25132L20.3165 5.92962L16.3088 5.90272C14.1045 5.88796 12.198 5.91989 12.072 5.97368ZM20.9713 8.86568C22.1236 9.41193 22.8476 10.1358 23.421 11.3155C23.8463 12.1902 23.8613 12.2623 23.8613 13.4229C23.8613 14.5834 23.8463 14.6555 23.421 15.5302C22.854 16.6968 22.1636 17.3874 20.9937 17.9586L20.0875 18.4012L16.9672 18.4394L13.8469 18.4775V13.4229V8.3682L16.9672 8.40757L20.0875 8.44682L20.9713 8.86568Z" fill="#B68157"/>
</svg>
