<svg width="40" height="40" viewBox="0 0 40 40" fill="none" xmlns="http://www.w3.org/2000/svg">
<mask id="mask0_133_473" style="mask-type:alpha" maskUnits="userSpaceOnUse" x="0" y="0" width="40" height="40">
<circle cx="20" cy="20" r="19.5" fill="#D9D9D9" stroke="#06243A"/>
</mask>
<g mask="url(#mask0_133_473)">
<path d="M29.4706 19.9999C29.4706 33.3396 18.8655 44.137 5.80367 44.137C-7.25819 44.137 -17.8633 33.3396 -17.8633 19.9999C-17.8633 6.66021 -7.25819 -4.13721 5.80367 -4.13721C18.8655 -4.13721 29.4706 6.66021 29.4706 19.9999Z" stroke="#06243A"/>
<path d="M57.8651 19.9999C57.8651 33.3396 47.2601 44.137 34.1982 44.137C21.1363 44.137 10.5312 33.3396 10.5312 19.9999C10.5312 6.66021 21.1363 -4.13721 34.1982 -4.13721C47.2601 -4.13721 57.8651 6.66021 57.8651 19.9999Z" stroke="#06243A"/>
<circle cx="20.0009" cy="-12.1412" r="23.6669" stroke="#06243A"/>
<circle cx="20.0009" cy="52.1416" r="23.6669" stroke="#06243A"/>
<line x1="8.11267e-06" y1="19.499" x2="40" y2="19.4997" stroke="#06243A"/>
<path d="M20.0225 -0.00146484L20.0225 39.9985" stroke="#06243A"/>
</g>
<circle cx="20" cy="20" r="19.5" stroke="#06243A"/>
</svg>
